<svg xmlns="http://www.w3.org/2000/svg" version="1.1" xmlns:xlink="http://www.w3.org/1999/xlink" xmlns:svgjs="http://svgjs.dev/svgjs" width="1440" height="560" preserveAspectRatio="none" viewBox="0 0 1440 560"><g mask="url(&quot;#SvgjsMask1765&quot;)" fill="none"><rect width="1440" height="560" x="0" y="0" fill="url(&quot;#SvgjsLinearGradient1766&quot;)"></rect><path d="M -399.10315961682124,350 C -303.1,310.2 -111.1,136.6 80.89684038317877,151 C 272.9,165.4 368.9,431.6 560.8968403831788,422 C 752.9,412.4 848.9,87.2 1040.8968403831789,103 C 1232.9,118.8 1441.08,503.2 1520.8968403831789,501 C 1600.72,498.8 1456.18,173.8 1440,92" stroke="rgba(216, 214, 225, 1)" stroke-width="2"></path><path d="M -90.72525144775295,311 C 5.27,298.2 197.27,228.8 389.27474855224705,247 C 581.27,265.2 677.27,429.6 869.274748552247,402 C 1061.27,374.4 1157.27,129.8 1349.274748552247,109 C 1541.27,88.2 1811.13,298.6 1829.274748552247,298 C 1847.42,297.4 1517.85,144.4 1440,106" stroke="rgba(216, 214, 225, 1)" stroke-width="2"></path><path d="M -561.0173117198253,189 C -465.02,235.4 -273.02,419.4 -81.01731171982533,421 C 110.98,422.6 206.98,211.6 398.98268828017467,197 C 590.98,182.4 686.98,363.4 878.9826882801747,348 C 1070.98,332.6 1246.78,124.4 1358.9826882801747,120 C 1471.19,115.6 1423.8,284.8 1440,326" stroke="rgba(216, 214, 225, 1)" stroke-width="2"></path><path d="M -346.553931496494,163 C -250.55,224.4 -58.55,461 133.446068503506,470 C 325.45,479 421.45,239.6 613.446068503506,208 C 805.45,176.4 901.45,318.6 1093.446068503506,312 C 1285.45,305.4 1504.14,142.8 1573.446068503506,175 C 1642.76,207.2 1466.69,413.4 1440,473" stroke="rgba(216, 214, 225, 1)" stroke-width="2"></path><path d="M -702.9259035864818,57 C -606.93,128.6 -414.93,371.8 -222.92590358648175,415 C -30.93,458.2 65.07,299.6 257.07409641351825,273 C 449.07,246.4 545.07,282.6 737.0740964135182,282 C 929.07,281.4 1076.49,262 1217.0740964135182,270 C 1357.66,278 1395.41,311.6 1440,322" stroke="rgba(216, 214, 225, 1)" stroke-width="2"></path></g><defs><mask id="SvgjsMask1765"><rect width="1440" height="560" fill="#ffffff"></rect></mask><linearGradient x1="50%" y1="100%" x2="50%" y2="0%" gradientUnits="userSpaceOnUse" id="SvgjsLinearGradient1766"><stop stop-color="rgba(255, 255, 255, 1)" offset="0.45"></stop><stop stop-color="rgba(240, 240, 240, 1)" offset="0.86"></stop></linearGradient></defs></svg>